# xmcd
#
# Track frame offsets:
#	150
#	14637
#	27366
#	46169
#	58479
#	78074
#	95007
#	109483
#	122230
#	141019
#	153349
#	172936
#
# Disc length: 2531 seconds
#
# Revision: 0
# Processed by: cddbd v1.5.2PL0 Copyright (c) Steve Scherf et al.
# Submitted via: audiograbber 1.83.01
#
DISCID=9f09e10c
DTITLE=Karaoke Country Hot Hits - Country Chartbusters Vol.161
DYEAR=1900
DGENRE=Karaoke
TTITLE0=Here Comes My Baby (Guide Vocals)
TTITLE1=Little Bird (Guide Vocals)
TTITLE2=God Gave Me You (Guide Vocals)
TTITLE3=Beer Thirty (Guide Vocals)
TTITLE4=Don't Tell Me (Guide Vocals)
TTITLE5=Smile (Guide Vocals)
TTITLE6=Here Comes My Baby (Performance Tracks)
TTITLE7=Little Bird (Performance Tracks)
TTITLE8=God Gave Me You (Performance Tracks)
TTITLE9=Beer Thirty (Performance Tracks)
TTITLE10=Don't Tell Me (Performance Tracks)
TTITLE11=Smile (Performance Tracks)
EXTD=
EXTT0=
EXTT1=
EXTT2=
EXTT3=
EXTT4=
EXTT5=
EXTT6=
EXTT7=
EXTT8=
EXTT9=
EXTT10=
EXTT11=
PLAYORDER=
